<svg xmlns="http://www.w3.org/2000/svg" xmlns:xlink="http://www.w3.org/1999/xlink" width="81.014" height="56.532" viewBox="0 0 81.014 56.532">
  <defs>
    <clipPath id="clip-path">
      <rect id="Rectangle_4" data-name="Rectangle 4" width="75.274" height="46.509" fill="none"/>
    </clipPath>
    <filter id="Path_5" x="-9" y="-1.113" width="98.327" height="69.646" filterUnits="userSpaceOnUse">
      <feOffset dy="3" input="SourceAlpha"/>
      <feGaussianBlur stdDeviation="3" result="blur"/>
      <feFlood flood-opacity="0.161"/>
      <feComposite operator="in" in2="blur"/>
      <feComposite in="SourceGraphic"/>
    </filter>
    <filter id="Path_6" x="59.215" y="14.261" width="22.03" height="22.103" filterUnits="userSpaceOnUse">
      <feOffset dy="3" input="SourceAlpha"/>
      <feGaussianBlur stdDeviation="3" result="blur-2"/>
      <feFlood flood-opacity="0.161"/>
      <feComposite operator="in" in2="blur-2"/>
      <feComposite in="SourceGraphic"/>
    </filter>
    <filter id="Path_7" x="7.858" y="5.458" width="28.411" height="25.878" filterUnits="userSpaceOnUse">
      <feOffset dy="3" input="SourceAlpha"/>
      <feGaussianBlur stdDeviation="3" result="blur-3"/>
      <feFlood flood-opacity="0.161"/>
      <feComposite operator="in" in2="blur-3"/>
      <feComposite in="SourceGraphic"/>
    </filter>
    <filter id="Path_8" x="7.858" y="5.458" width="28.411" height="25.878" filterUnits="userSpaceOnUse">
      <feOffset dy="3" input="SourceAlpha"/>
      <feGaussianBlur stdDeviation="3" result="blur-4"/>
      <feFlood flood-opacity="0.161"/>
      <feComposite operator="in" in2="blur-4"/>
      <feComposite in="SourceGraphic"/>
    </filter>
    <filter id="Path_9" x="54.543" y="2.117" width="30.821" height="24.601" filterUnits="userSpaceOnUse">
      <feOffset dy="3" input="SourceAlpha"/>
      <feGaussianBlur stdDeviation="3" result="blur-5"/>
      <feFlood flood-opacity="0.161"/>
      <feComposite operator="in" in2="blur-5"/>
      <feComposite in="SourceGraphic"/>
    </filter>
    <filter id="Path_10" x="54.543" y="2.117" width="30.821" height="24.601" filterUnits="userSpaceOnUse">
      <feOffset dy="3" input="SourceAlpha"/>
      <feGaussianBlur stdDeviation="3" result="blur-6"/>
      <feFlood flood-opacity="0.161"/>
      <feComposite operator="in" in2="blur-6"/>
      <feComposite in="SourceGraphic"/>
    </filter>
  </defs>
  <g id="Group_5" data-name="Group 5" transform="translate(6.473) rotate(8)">
    <g id="Group_4" data-name="Group 4" clip-path="url(#clip-path)">
      <g id="Group_3" data-name="Group 3" opacity="0.79">
        <g id="Group_2" data-name="Group 2">
          <g id="Group_1" data-name="Group 1" clip-path="url(#clip-path)">
            <g transform="matrix(0.99, -0.14, 0.14, 0.99, -6.41, 0.9)" filter="url(#Path_5)">
              <path id="Path_5-2" data-name="Path 5" d="M3.51,97.641c-2.287,6.176-1.059,2.484-2.6,7.038a16.859,16.859,0,0,0-.9,4.672,9.192,9.192,0,0,0,1.027,4.962,8.772,8.772,0,0,0,5.281,3.5c7.769,1.939,16.312-8.537,19.864-15.956a6.019,6.019,0,0,0,3.152.194A14.2,14.2,0,0,0,31.9,101c.054,1.366.538,2.441,1.794,2.789a5.581,5.581,0,0,0,3.229-.487,25.512,25.512,0,0,0,5.24-2.986A44.239,44.239,0,0,0,49.3,93.733c2.288-2.789,2.925-3.868,4.823-6.021a.81.81,0,0,1,.252-.186c1.323-.685,2.335,2.727,2.372,4.161,0,.016,0,.031,0,.046.56,6.539,4.818,8.665,10.065,3.72,3.562-3.513,5.584-8.293,8.462-12.362-2.2,3.089-4.369,6.325-6.469,9.424-1.223,1.789-2.847,3.53-5.143,3.569-2.675.061-3.714-3.337-3.815-5.259-.088-2.207-.02-8.539-3.621-6.166-3.579,2.413-6.905,7.708-8.925,9.793-.017.017-.032.035-.05.051a23.686,23.686,0,0,1-3.73,3.145,17.327,17.327,0,0,1-3.841,1.984c-2.282.754-3.288.037-3.619-1.263.471-.329.941-.657,1.411-.975a81.2,81.2,0,0,0,10.8-9.883,19.258,19.258,0,0,0,4.283-7.029c.66-3.434-1.554-4.8-4.576-3.556A16.721,16.721,0,0,0,42.8,80.87a45.01,45.01,0,0,0-4.623,5.539,38.982,38.982,0,0,0-3.917,6.148,19.574,19.574,0,0,0-1.7,4.376c-.044,0-.058.8-.645.88-2.184.062-3.1.38-3.07-1.441,0-.249.009-.141.118-1.507,0-.05.118-1.194.123-1.244.089-.844.088-1.257.168-2.072.022-.225.034-.374.064-.649l.062-.643-.906.625A16.347,16.347,0,0,0,27.114,92.7,17.14,17.14,0,0,0,26.1,94.811c-.023.056-.126.332-.144.389-.083.25-.157.5-.181.59,0,.017-.093.338-.1.357-.283.917-.283.917-.511,1.671-.242.8-.565,1.64-.828,2.413l-.081.236a37.58,37.58,0,0,1-2.47,5.642,16.9,16.9,0,0,1-4.3,5.382l-1.574,1.278c-.773.56-1.614,1.345-4.771,1.878a6.4,6.4,0,0,1-3.051-.2,8.032,8.032,0,0,1-2.72-1.679c-1.535-1.307-2.117-3.571-2.5-5.622a22.88,22.88,0,0,1-.3-2.874,23.31,23.31,0,0,1,.934-6.63m36.58-11.771A23.167,23.167,0,0,1,44,81.108c.25-.175.457-.327.65-.438,2.327-1.3,5.027-.609,4.619,2.373a5.188,5.188,0,0,1-.517,1.616,7.309,7.309,0,0,1-.9,1.557,23.818,23.818,0,0,1-2.942,3.341,58.082,58.082,0,0,1-7.624,6.135l-1.338.845a21.418,21.418,0,0,1,1.07-4.681,19.316,19.316,0,0,1,.989-2.362,24.671,24.671,0,0,1,2.08-3.624" transform="translate(16.43 -70.84) rotate(8)" fill="#f5f0e4"/>
            </g>
            <g transform="matrix(0.99, -0.14, 0.14, 0.99, -6.41, 0.9)" filter="url(#Path_6)">
              <path id="Path_6-2" data-name="Path 6" d="M1002.545,178.491a1.779,1.779,0,1,1-1.781-1.824,1.8,1.8,0,0,1,1.781,1.824" transform="translate(-895.96 -293.72) rotate(8)" fill="#f5f0e4"/>
            </g>
            <g transform="matrix(0.99, -0.14, 0.14, 0.99, -6.41, 0.9)" filter="url(#Path_7)">
              <path id="Path_7-2" data-name="Path 7" d="M206.57,155.321c-.5.116-1.093-.354-1.468-.244-.021,0-.03.006-.082.049a5.85,5.85,0,0,0-.894,1.66c-1.2,1.847-3.349-.059-4.444-1.3a2.027,2.027,0,0,1-.192-.238l-1.283-1.919a9.5,9.5,0,0,0,.811,2.321,4.526,4.526,0,0,0,3.726,2.418,1.345,1.345,0,0,0,.551-.122,2.474,2.474,0,0,0,1.054-.956,1.767,1.767,0,0,1,1.485-.8,1.376,1.376,0,0,0,.708-.179c1.485-1.01,1.236-2.965,1.23-4.547-.309,1.019.178,3.732-1.2,3.86" transform="translate(-157.42 -166.11) rotate(8)" fill="#f5f0e4"/>
            </g>
            <g transform="matrix(0.99, -0.14, 0.14, 0.99, -6.41, 0.9)" filter="url(#Path_8)">
              <path id="Path_8-2" data-name="Path 8" d="M206.57,155.321c-.5.116-1.093-.354-1.468-.244-.021,0-.03.006-.082.049a5.85,5.85,0,0,0-.894,1.66c-1.2,1.847-3.349-.059-4.444-1.3a2.027,2.027,0,0,1-.192-.238l-1.283-1.919a9.5,9.5,0,0,0,.811,2.321,4.526,4.526,0,0,0,3.726,2.418,1.345,1.345,0,0,0,.551-.122,2.474,2.474,0,0,0,1.054-.956,1.767,1.767,0,0,1,1.485-.8,1.376,1.376,0,0,0,.708-.179c1.485-1.01,1.236-2.965,1.23-4.547-.309,1.019.178,3.732-1.2,3.86" transform="translate(-157.42 -166.11) rotate(8)" fill="#f5f0e4"/>
            </g>
            <g transform="matrix(0.99, -0.14, 0.14, 0.99, -6.41, 0.9)" filter="url(#Path_9)">
              <path id="Path_9-2" data-name="Path 9" d="M903.877,4.944C906.126,4.01,915.717.375,916.129,0c-2.429.887-10.022,4.539-12.252,4.944" transform="translate(-830.85 -117.68) rotate(8)" fill="#f5f0e4"/>
            </g>
            <g transform="matrix(0.99, -0.14, 0.14, 0.99, -6.41, 0.9)" filter="url(#Path_10)">
              <path id="Path_10-2" data-name="Path 10" d="M903.877,4.944C906.126,4.01,915.717.375,916.129,0c-2.429.887-10.022,4.539-12.252,4.944" transform="translate(-830.85 -117.68) rotate(8)" fill="#f5f0e4"/>
            </g>
          </g>
        </g>
      </g>
    </g>
  </g>
</svg>
